<?xml version="1.0"?>
<svg xmlns="http://www.w3.org/2000/svg" version="1.2" baseProfile="tiny" width="500" height="464" viewBox="0 0 800 764" stroke-linecap="round" stroke-linejoin="round">
<g id="Korea">
<path stroke="#000000" fill="#FF99CC" id="1" d="M 256.98 136.81 260.47 127.8 269.35 129.56 274.34 153.62 273.09 160.25 266.39 165.18 258.9 160.28 247.84 164.8 244.43 157.68 238.6 158.49 238.87 149.95 247.3 143.38 249.05 135.66 256.98 136.81 Z"/>
<path stroke="#000000" fill="#FF99CC" id="6" d="M 517.14 456.1 510.15 474.97 505.34 479.37 498.36 479.57 497.72 486.66 487.74 488.16 480.18 494.21 477.22 488.16 466.37 489.87 466.84 479.52 471.64 471.63 484.42 468.16 504.57 452.07 514.16 447.21 517.14 456.1 Z"/>
<path stroke="#000000" fill="#FF99CC" id="4" d="M 423.75 386.37 423.74 386.36 423.73 386.35 422.93 385.86 422.72 385.79 419.6 384.35 413.65 383.78 418.91 372.96 429.98 373.8 431.86 367.87 442.26 361.3 440.86 351.98 434.27 354.58 432.25 340.33 423.84 330.74 416.99 329.26 420.19 318.58 442.02 327.38 448.38 334.98 459.65 336.41 462.98 332.56 471.37 340.19 460.08 351.03 451.98 350.03 448.61 360.77 454.39 366.7 456.11 381.48 447.51 392.12 447.71 401.64 441.1 404.23 436.07 399.39 430.16 403.04 427.81 413.21 415.78 412.5 419.27 401.37 413.74 396.85 417.92 389.77 423.75 386.37 Z"/>
<path stroke="#000000" fill="#FF99CC" id="2" d="M 207.88 152.37 204.15 159.98 196.94 166.1 187.36 159.6 194.17 155.73 207.88 152.37 Z M 215.41 147.93 222.58 136.91 228.4 142.78 235.17 143.7 230.46 153.57 233.03 165.61 221.24 176.18 215.36 171.05 215.41 147.93 Z M 196.28 109.46 204.53 116.14 206.06 134.25 204.67 141.9 192.81 142.09 193.95 133.49 187.74 126.44 187.33 114.94 196.28 109.46 Z" fill-rule="evenodd"/>
<path stroke="#000000" fill="#FF99CC" id="5" d="M 229.75 466.27 234.93 471.77 249.19 467.5 258.27 484.59 255.64 489.13 247.84 489.55 231.34 494.83 226.87 487.11 217.23 485.35 217.9 478.95 229.75 466.27 Z"/>
<path stroke="#000000" fill="#FF99CC" id="3" d="M 302.96 296.45 303.06 296.67 303.15 297.63 303.15 297.76 303 298.13 302.96 298.24 302.54 298.31 302.53 298.34 302.51 298.4 302.5 298.46 302.5 298.5 302.5 298.56 302.5 298.62 302.49 298.74 302.47 298.79 302.48 298.83 302.48 298.84 302.48 298.89 302.5 299 302.5 299.02 302.52 299.1 302.54 299.14 302.59 299.18 302.64 299.35 302.64 299.39 302.57 299.47 302.57 299.49 302.58 299.61 302.58 299.64 302.62 299.75 302.66 299.85 302.63 300.4 302.62 300.41 302.61 300.44 302.61 300.49 302.6 300.51 302.6 300.54 302.6 300.56 302.63 300.63 302.67 300.66 302.71 300.71 302.97 300.67 303.03 300.71 303.39 300.76 303.47 300.77 303.57 300.79 303.68 300.79 304.03 300.78 304.14 300.78 304.26 300.79 304.44 300.79 304.51 300.78 304.55 300.77 304.59 300.76 304.64 300.75 304.69 300.74 304.8 300.72 304.91 300.7 305.35 300.61 305.44 300.59 305.45 300.59 305.77 300.49 306.07 300.51 306.11 300.52 306.27 300.53 306.48 300.54 306.65 300.55 306.7 300.55 306.8 300.56 306.83 300.61 306.75 300.6 306.62 300.6 306.51 300.6 306.5 300.6 306.49 300.65 306.9 300.67 306.92 300.69 307.02 300.8 307.05 300.82 307.06 300.84 307.1 300.87 307.17 300.96 307.2 300.99 307.24 301.03 307.29 301.08 307.31 301.1 307.34 301.15 307.36 301.17 307.38 301.21 307.43 301.26 307.43 301.27 307.5 301.32 307.53 301.34 307.6 301.38 307.75 301.45 307.77 301.46 307.88 301.51 307.97 301.56 308.26 301.55 308.48 301.53 308.57 301.5 308.61 301.49 308.68 301.46 308.73 301.44 308.77 301.43 308.94 301.33 309.02 301.27 309.11 301.21 309.19 301.15 309.25 301.11 309.51 300.83 309.61 300.71 309.64 300.66 309.69 300.61 309.69 300.59 309.8 300.04 309.8 300.02 309.81 299.66 309.81 299.59 309.82 299.46 309.83 299.44 309.85 299.38 309.88 299.32 309.96 299.13 309.96 299.13 309.98 299.08 310 299.04 310.02 298.99 310.04 298.93 310.07 298.87 310.08 298.84 310.09 298.83 310.1 298.81 310.11 298.77 310.13 298.73 310.48 298.28 310.56 298.17 310.73 298.02 311 297.89 311.21 297.8 311.72 297.68 311.74 297.68 311.78 297.69 312.1 297.76 312.11 297.82 312.12 297.86 312.13 297.9 312.15 298.03 312.14 298.1 312.13 298.16 312.13 298.18 312.07 298.41 312.06 298.49 312.02 298.63 312 298.72 311.99 298.75 311.97 298.82 311.96 298.85 311.94 298.87 311.94 298.88 311.91 298.94 311.9 298.96 311.9 298.97 311.9 298.97 311.89 298.99 311.89 299 311.87 299.06 311.86 299.07 311.86 299.08 311.85 299.1 311.85 299.11 311.85 299.11 311.84 299.14 311.84 299.14 311.83 299.16 311.8 299.23 311.75 299.31 311.73 299.33 311.73 299.33 311.7 299.37 311.66 299.42 311.58 299.54 311.54 299.63 311.54 299.65 311.54 299.67 311.53 299.69 311.48 299.79 311.45 299.83 311.42 299.9 311.38 300.05 311.37 300.12 311.36 300.18 311.36 300.21 311.38 300.28 311.41 300.36 311.44 300.42 311.59 300.62 311.65 300.67 311.88 300.91 312 300.97 312.16 301.04 312.83 301 313.16 300.9 313.21 300.88 313.49 300.77 313.53 300.75 313.57 300.74 313.59 300.73 313.61 300.73 313.61 300.72 313.61 300.72 313.62 300.72 313.64 300.71 313.68 300.7 313.68 300.7 313.82 300.64 313.95 300.59 314.2 300.69 314.22 300.73 314.39 301.19 314.39 301.19 314.31 301.43 314.21 301.6 314.19 301.62 314.15 301.65 314.04 301.77 314.01 301.79 313.99 301.81 313.88 301.91 313.81 301.97 313.81 301.98 313.57 302.18 313.55 302.2 313.47 302.3 313.45 302.32 313.19 302.63 313.18 302.64 313.11 302.78 313.1 302.8 313.07 302.85 313.06 302.88 313.04 302.92 312.86 303.35 312.82 303.43 312.74 303.65 312.78 303.96 312.87 304.18 312.89 304.23 312.96 304.38 312.98 304.44 313.02 304.52 313.04 304.57 313.06 304.61 313.09 304.68 313.11 304.74 313.17 304.86 313.29 305.02 313.46 305.43 313.5 305.56 313.55 305.68 313.55 305.79 313.56 306.09 313.56 306.11 313.57 306.14 313.64 306.31 313.68 306.37 313.82 306.58 313.85 306.62 313.89 306.71 314.06 307.18 314.15 307.2 314.62 307.24 314.95 307.19 315.02 307.1 315.03 307.08 315.09 307.01 315.12 306.95 315.15 306.88 315.16 306.85 315.3 306.19 315.36 305.95 315.41 305.7 315.42 305.69 315.51 305.27 315.65 305.26 315.7 305.26 315.74 305.3 315.74 305.31 315.76 305.33 315.76 305.33 315.78 305.34 315.85 305.4 315.87 305.45 316.02 305.58 316.02 305.6 316.16 305.56 316.2 305.46 316.45 305.25 316.51 305.17 316.61 305.13 316.8 305.34 316.8 305.39 316.83 305.48 316.91 305.44 316.91 305.44 316.99 305.44 317.11 305.56 317.11 305.64 317.57 305.72 317.66 305.71 317.84 305.75 317.98 305.61 318.08 305.56 318.12 305.59 318.18 305.58 318.29 305.55 318.61 305.7 318.58 306.21 319.05 307.18 319.17 307.21 319.17 307.21 319.18 307.21 319.23 307.24 319.25 307.24 319.32 307.31 319.45 307.37 319.53 307.43 319.55 307.45 319.63 307.56 319.71 307.71 319.71 307.71 319.92 308.26 319.93 308.27 319.94 308.27 319.96 308.29 320 308.32 320.06 308.36 320.06 308.36 320.27 308.44 320.28 308.44 320.4 308.43 320.41 308.42 320.48 308.4 320.5 308.45 320.58 308.63 320.52 308.68 320.33 308.75 319.98 309.08 319.62 309.04 319.58 308.98 319.5 308.81 318.9 308.91 318.08 309.08 317.96 309.1 317.76 309.21 317.64 309.27 317.63 309.35 317.66 309.36 317.66 309.42 317.64 309.5 317.45 309.64 317.35 309.6 317.31 309.6 317.27 309.6 317.26 309.62 317.22 309.67 317.15 309.75 317.09 309.91 317.03 309.95 316.93 310.04 316.89 310.09 316.84 310.12 316.71 310.1 316.64 310.26 316.72 310.53 316.7 310.86 316.73 311.19 316.79 311.3 316.71 311.6 316.71 311.6 316.67 311.72 316.8 312.26 316.8 312.32 316.78 312.83 316.67 313.03 316.61 313.05 316.63 313.15 316.63 313.22 316.67 313.37 316.68 313.42 316.64 313.47 316.61 313.64 316.62 313.69 316.59 313.78 316.54 313.92 316.46 314.02 316.37 314.19 316.42 314.33 316.45 314.37 316.47 314.48 316.42 314.61 316.39 314.72 316.31 314.79 316.3 314.85 316.14 315.15 316.11 315.19 315.98 315.28 315.85 315.37 315.81 315.44 315.83 315.59 315.35 315.66 315.35 315.67 315.31 315.7 315.25 315.84 315.06 315.8 314.98 315.77 314.72 315.83 314.72 315.87 314.79 316.07 314.77 316.18 314.64 316.31 314.49 316.38 314.43 316.41 314.39 316.45 314.44 316.56 314.32 316.58 314.17 316.64 314.12 316.65 314 316.72 313.95 316.8 313.95 316.83 313.95 316.84 314.03 317.17 314.06 317.22 314.03 317.39 314.03 317.52 314.03 317.52 314 317.65 314.07 317.79 314.06 317.89 314.08 318.06 314.13 318.39 314.21 318.59 314.22 318.66 314.21 318.72 314.19 318.76 314.18 318.79 314.16 318.84 314.09 318.98 314.06 319.08 314.02 319.11 313.97 319.18 313.94 319.25 313.88 319.33 313.76 319.4 313.55 319.58 313.55 319.76 313.57 319.79 313.6 319.87 313.64 319.97 313.62 320.01 313.57 320.15 313.54 320.25 313.49 320.33 313.28 320.58 313.34 320.62 313.46 320.77 313.75 321.31 313.76 321.37 313.77 321.44 313.77 321.46 313.73 321.55 313.59 321.91 313.5 322.09 313.5 322.09 313.44 322.33 313.27 322.12 313.11 322.17 313.04 322.22 313.02 322.29 312.95 322.34 312.93 322.46 312.92 322.56 312.9 322.66 312.97 322.78 313.02 322.85 313.07 322.94 313.08 323.01 313.17 323.17 313.26 323.41 313.29 323.44 313.39 323.61 313.38 323.67 313.41 323.94 313.47 323.97 313.62 324.23 313.63 324.3 313.76 324.56 313.74 324.66 313.55 325.05 313.33 325.28 313.21 325.42 313.1 325.53 313.06 325.64 312.89 325.79 312.84 325.86 312.84 325.86 312.79 325.9 312.75 325.92 312.73 325.93 312.7 325.94 312.66 325.99 312.64 326.11 312.66 326.2 312.68 326.28 312.69 326.32 312.7 326.42 312.7 326.43 312.73 326.46 312.75 326.56 312.77 326.59 312.79 326.63 312.62 326.78 312.58 326.79 312.51 327.05 312.4 327.5 312.38 327.51 312.34 327.86 312.46 327.96 312.75 328.12 312.71 328.34 312.74 328.65 312.62 328.8 312.54 328.91 312.5 328.98 312.55 329.14 312.58 329.22 312.68 329.58 312.7 329.66 312.7 329.73 312.79 329.87 313.07 330.14 313.02 330.23 313.06 330.63 313.06 330.65 313.05 330.85 308.12 336.56 298.62 333.48 294.1 335.65 286.8 325.53 289.46 306.33 294.42 305.28 297.96 296.84 302.26 295.66 302.31 295.72 302.34 295.76 302.48 295.92 302.96 296.45 Z"/>
<path stroke="#000000" fill="#FF99CC" id="7" d="M 523.39 436.04 525.05 451.19 516.13 453.31 509.09 448.23 506.44 440.04 499.96 438.73 496.12 432.33 485.19 428.61 481.37 423.09 495.08 403.1 506.78 400.81 513.23 404.55 517.24 411.22 523.64 406.3 533.66 410.95 536.36 419.02 533.87 432.77 523.39 436.04 Z"/>
<path stroke="#000000" fill="#FF99CC" id="8" d="M 277.92 281.03 273.05 265.77 280.09 262.83 290.32 272.4 295.6 284.8 302.9 288.79 294.42 305.28 283.13 305.25 277.32 294.57 277.92 281.03 Z"/>
<path stroke="#000000" fill="#FF99CC" id="31" d="M 273.09 160.25 274.34 153.62 269.35 129.56 260.47 127.8 254.72 137.7 247.3 143.38 228.4 142.78 222.58 136.91 211.43 141.61 206.69 131.28 207.11 120.65 221.72 116.54 224.31 105.8 222.91 91.96 238.97 86.59 242.82 81.42 243.31 72.84 253.8 64.47 257.56 58.68 271.36 53.02 278.32 57.98 279.81 64.04 294.22 73.39 300.58 70.11 307.36 71.44 309.23 84.18 318.27 86.46 325.14 92.77 326.76 99.56 317.13 108.76 316.34 115.8 320.71 125.35 320.45 138.05 325.91 135.08 336.84 143.87 342.04 143.14 352.33 148.53 342.65 155.36 347.5 165.25 342.99 173.86 341.53 194.39 334.83 206.38 317.53 217.54 309.48 218.8 291.99 236.77 270.67 229 266.55 233.43 242.31 237.66 234.81 220.75 223.21 209.23 219.62 193.56 223.79 188.47 235.1 191.05 238.6 184.46 227.22 182.13 224.22 178.35 233.03 165.61 230.13 157.34 232.52 149.07 238.87 149.95 238.6 158.49 244.43 157.68 247.84 164.8 258.9 160.28 266.39 165.18 273.09 160.25 Z M 234.94 200.8 230.63 201.56 223.47 209.33 231.2 217.07 234.94 200.8 Z" fill-rule="evenodd"/>
<path stroke="#000000" fill="#FF99CC" id="33" d="M 313.05 330.85 313.06 330.65 313.06 330.63 313.02 330.23 313.07 330.14 312.79 329.87 312.7 329.73 312.7 329.66 312.68 329.58 312.58 329.22 312.55 329.14 312.5 328.98 312.54 328.91 312.62 328.8 312.74 328.65 312.71 328.34 312.75 328.12 312.46 327.96 312.34 327.86 312.38 327.51 312.4 327.5 312.51 327.05 312.58 326.79 312.62 326.78 312.79 326.63 312.77 326.59 312.75 326.56 312.73 326.46 312.7 326.43 312.7 326.42 312.69 326.32 312.68 326.28 312.66 326.2 312.64 326.11 312.66 325.99 312.7 325.94 312.73 325.93 312.75 325.92 312.79 325.9 312.84 325.86 312.84 325.86 312.89 325.79 313.06 325.64 313.1 325.53 313.21 325.42 313.33 325.28 313.55 325.05 313.74 324.66 313.76 324.56 313.63 324.3 313.62 324.23 313.47 323.97 313.41 323.94 313.38 323.67 313.39 323.61 313.29 323.44 313.26 323.41 313.17 323.17 313.08 323.01 313.07 322.94 313.02 322.85 312.97 322.78 312.9 322.66 312.92 322.56 312.93 322.46 312.95 322.34 313.02 322.29 313.04 322.22 313.11 322.17 313.27 322.12 313.44 322.33 313.5 322.09 313.5 322.09 313.59 321.91 313.73 321.55 313.77 321.46 313.77 321.44 313.76 321.37 313.75 321.31 313.46 320.77 313.34 320.62 313.28 320.58 313.49 320.33 313.54 320.25 313.57 320.15 313.62 320.01 313.64 319.97 313.6 319.87 313.57 319.79 313.55 319.76 313.55 319.58 313.76 319.4 313.88 319.33 313.94 319.25 313.97 319.18 314.02 319.11 314.06 319.08 314.09 318.98 314.16 318.84 314.18 318.79 314.19 318.76 314.21 318.72 314.22 318.66 314.21 318.59 314.13 318.39 314.08 318.06 314.06 317.89 314.07 317.79 314 317.65 314.03 317.52 314.03 317.52 314.03 317.39 314.06 317.22 314.03 317.17 313.95 316.84 313.95 316.83 313.95 316.8 314 316.72 314.12 316.65 314.17 316.64 314.32 316.58 314.44 316.56 314.39 316.45 314.43 316.41 314.49 316.38 314.64 316.31 314.77 316.18 314.79 316.07 314.72 315.87 314.72 315.83 314.98 315.77 315.06 315.8 315.25 315.84 315.31 315.7 315.35 315.67 315.35 315.66 315.83 315.59 315.81 315.44 315.85 315.37 315.98 315.28 316.11 315.19 316.14 315.15 316.3 314.85 316.31 314.79 316.39 314.72 316.42 314.61 316.47 314.48 316.45 314.37 316.42 314.33 316.37 314.19 316.46 314.02 316.54 313.92 316.59 313.78 316.62 313.69 316.61 313.64 316.64 313.47 316.68 313.42 316.67 313.37 316.63 313.22 316.63 313.15 316.61 313.05 316.67 313.03 316.78 312.83 316.8 312.32 316.8 312.26 316.67 311.72 316.71 311.6 316.71 311.6 316.79 311.3 316.73 311.19 316.7 310.86 316.72 310.53 316.64 310.26 316.71 310.1 316.84 310.12 316.89 310.09 316.93 310.04 317.03 309.95 317.09 309.91 317.15 309.75 317.22 309.67 317.26 309.62 317.27 309.6 317.31 309.6 317.35 309.6 317.45 309.64 317.64 309.5 317.66 309.42 317.66 309.36 317.63 309.35 317.64 309.27 317.76 309.21 317.96 309.1 318.08 309.08 318.9 308.91 319.5 308.81 319.58 308.98 319.62 309.04 319.98 309.08 320.33 308.75 320.52 308.68 320.58 308.63 320.5 308.45 320.48 308.4 320.41 308.42 320.4 308.43 320.28 308.44 320.27 308.44 320.06 308.36 320.06 308.36 320 308.32 319.96 308.29 319.94 308.27 319.93 308.27 319.92 308.26 319.71 307.71 319.71 307.71 319.63 307.56 319.55 307.45 319.53 307.43 319.45 307.37 319.32 307.31 319.25 307.24 319.23 307.24 319.18 307.21 319.17 307.21 319.17 307.21 319.05 307.18 318.58 306.21 318.61 305.7 318.29 305.55 318.18 305.58 318.12 305.59 318.08 305.56 317.98 305.61 317.84 305.75 317.66 305.71 317.57 305.72 317.11 305.64 317.11 305.56 316.99 305.44 316.91 305.44 316.91 305.44 316.83 305.48 316.8 305.39 316.8 305.34 316.61 305.13 316.51 305.17 316.45 305.25 316.2 305.46 316.16 305.56 316.02 305.6 316.02 305.58 315.87 305.45 315.85 305.4 315.78 305.34 315.76 305.33 315.76 305.33 315.74 305.31 315.74 305.3 315.7 305.26 315.65 305.26 315.51 305.27 315.42 305.69 315.41 305.7 315.36 305.95 315.3 306.19 315.16 306.85 315.15 306.88 315.12 306.95 315.09 307.01 315.03 307.08 315.02 307.1 314.95 307.19 314.62 307.24 314.15 307.2 314.06 307.18 313.89 306.71 313.85 306.62 313.82 306.58 313.68 306.37 313.64 306.31 313.57 306.14 313.56 306.11 313.56 306.09 313.55 305.79 313.55 305.68 313.5 305.56 313.46 305.43 313.29 305.02 313.17 304.86 313.11 304.74 313.09 304.68 313.06 304.61 313.04 304.57 313.02 304.52 312.98 304.44 312.96 304.38 312.89 304.23 312.87 304.18 312.78 303.96 312.74 303.65 312.82 303.43 312.86 303.35 313.04 302.92 313.06 302.88 313.07 302.85 313.1 302.8 313.11 302.78 313.18 302.64 313.19 302.63 313.45 302.32 313.47 302.3 313.55 302.2 313.57 302.18 313.81 301.98 313.81 301.97 313.88 301.91 313.99 301.81 314.01 301.79 314.04 301.77 314.15 301.65 314.19 301.62 314.21 301.6 314.31 301.43 314.39 301.19 314.39 301.19 314.22 300.73 314.2 300.69 313.95 300.59 313.82 300.64 313.68 300.7 313.68 300.7 313.64 300.71 313.62 300.72 313.61 300.72 313.61 300.72 313.61 300.73 313.59 300.73 313.57 300.74 313.53 300.75 313.49 300.77 313.21 300.88 313.16 300.9 312.83 301 312.16 301.04 312 300.97 311.88 300.91 311.65 300.67 311.59 300.62 311.44 300.42 311.41 300.36 311.38 300.28 311.36 300.21 311.36 300.18 311.37 300.12 311.38 300.05 311.42 299.9 311.45 299.83 311.48 299.79 311.53 299.69 311.54 299.67 311.54 299.65 311.54 299.63 311.58 299.54 311.66 299.42 311.7 299.37 311.73 299.33 311.73 299.33 311.75 299.31 311.8 299.23 311.83 299.16 311.84 299.14 311.84 299.14 311.85 299.11 311.85 299.11 311.85 299.1 311.86 299.08 311.86 299.07 311.87 299.06 311.89 299 311.89 298.99 311.9 298.97 311.9 298.97 311.9 298.96 311.91 298.94 311.94 298.88 311.94 298.87 311.96 298.85 311.97 298.82 311.99 298.75 312 298.72 312.02 298.63 312.06 298.49 312.07 298.41 312.13 298.18 312.13 298.16 312.14 298.1 312.15 298.03 312.13 297.9 312.12 297.86 312.11 297.82 312.1 297.76 311.78 297.69 311.74 297.68 311.72 297.68 311.21 297.8 311 297.89 310.73 298.02 310.56 298.17 310.48 298.28 310.13 298.73 310.11 298.77 310.1 298.81 310.09 298.83 310.08 298.84 310.07 298.87 310.04 298.93 310.02 298.99 310 299.04 309.98 299.08 309.96 299.13 309.96 299.13 309.88 299.32 309.85 299.38 309.83 299.44 309.82 299.46 309.81 299.59 309.81 299.66 309.8 300.02 309.8 300.04 309.69 300.59 309.69 300.61 309.64 300.66 309.61 300.71 309.51 300.83 309.25 301.11 309.19 301.15 309.11 301.21 309.02 301.27 308.94 301.33 308.77 301.43 308.73 301.44 308.68 301.46 308.61 301.49 308.57 301.5 308.48 301.53 308.26 301.55 307.97 301.56 307.88 301.51 307.77 301.46 307.75 301.45 307.6 301.38 307.53 301.34 307.5 301.32 307.43 301.27 307.43 301.26 307.38 301.21 307.36 301.17 307.34 301.15 307.31 301.1 307.29 301.08 307.24 301.03 307.2 300.99 307.17 300.96 307.1 300.87 307.06 300.84 307.05 300.82 307.02 300.8 306.92 300.69 306.9 300.67 306.49 300.65 306.5 300.6 306.51 300.6 306.62 300.6 306.75 300.6 306.83 300.61 306.8 300.56 306.7 300.55 306.65 300.55 306.48 300.54 306.27 300.53 306.11 300.52 306.07 300.51 305.77 300.49 305.45 300.59 305.44 300.59 305.35 300.61 304.91 300.7 304.8 300.72 304.69 300.74 304.64 300.75 304.59 300.76 304.55 300.77 304.51 300.78 304.44 300.79 304.26 300.79 304.14 300.78 304.03 300.78 303.68 300.79 303.57 300.79 303.47 300.77 303.39 300.76 303.03 300.71 302.97 300.67 302.71 300.71 302.67 300.66 302.63 300.63 302.6 300.56 302.6 300.54 302.6 300.51 302.61 300.49 302.61 300.44 302.62 300.41 302.63 300.4 302.66 299.85 302.62 299.75 302.58 299.64 302.58 299.61 302.57 299.49 302.57 299.47 302.64 299.39 302.64 299.35 302.59 299.18 302.54 299.14 302.52 299.1 302.5 299.02 302.5 299 302.48 298.89 302.48 298.84 302.48 298.83 302.47 298.79 302.49 298.74 302.5 298.62 302.5 298.56 302.5 298.5 302.5 298.46 302.51 298.4 302.53 298.34 302.54 298.31 302.96 298.24 303 298.13 303.15 297.76 303.15 297.63 303.06 296.67 302.96 296.45 302.48 295.92 302.34 295.76 302.31 295.72 302.26 295.66 302.9 288.79 295.6 284.8 290.32 272.4 292.59 263.75 302.92 253.59 290.54 240.09 302.12 225.42 309.48 218.8 317.53 217.54 334.83 206.38 338.04 199.68 346.04 205.26 362.02 200.71 360.66 193.89 367.1 189.24 373.51 198.78 387.56 195.36 392.38 190.4 399.15 196.02 399.42 202.42 412.08 202.82 416.45 210.38 422.52 209.36 441.8 215.3 434.22 218.6 418.75 234.75 416.56 250.84 405.44 250.36 396.57 242.58 393.77 250.9 376.3 250.42 373.31 260.03 364.91 261.73 361.8 267.94 362.12 277.2 352.78 277.13 347.28 282.48 358.26 290.1 354.69 307.88 356.82 315.79 352.23 321.04 366.48 329 368.89 345.3 365.78 353.96 355.32 360.46 343.88 362.1 331.1 355.9 323.95 345.19 324.9 333.73 317.55 329.05 313.05 330.85 Z"/>
<path stroke="#000000" fill="#FF99CC" id="34" d="M 210.8 221.34 225.4 224.92 233.7 229.5 237.79 239.32 242.88 241.64 256.6 234.4 266.55 233.43 270.67 229 280.63 231.8 288.63 237.33 304.98 258.7 295.24 260.1 289.9 268.07 280.09 262.83 273.05 265.77 275.36 279.66 279.66 283.28 277.32 294.57 280.42 302.51 286.74 307.21 289.1 316 286.8 325.53 294.1 335.65 298.62 333.48 308.12 336.56 315.92 330.47 324.9 333.73 323.95 345.19 326.61 348.33 327.01 361.18 318.12 359.33 316.11 366.16 309.01 366.15 299.97 360.65 295.9 345.94 280.79 349.84 271.45 354.84 264.41 350.7 262.14 344.39 250.77 342.75 244.38 345.41 243.04 354.26 227.84 363.44 221.15 362.19 211.63 345.46 202.44 342.29 206.88 326.11 202.06 318.45 202.88 310.46 199.6 295.53 200.61 290.25 197.17 280.68 190.72 277.3 182.43 278.57 175.82 268.99 163.69 268.86 165.03 257.64 160.35 257.84 169.81 238.23 181.62 240.44 183.36 250.24 193.73 234.6 188.85 227.14 197.1 223.72 202.34 217.29 210.8 221.34 Z M 187.6 284.64 194.47 304.77 187.44 306.04 184.05 298.61 187.6 284.64 Z" fill-rule="evenodd"/>
<path stroke="#000000" fill="#FF99CC" id="37" d="M 215.57 366.44 227.02 365.54 243.04 354.26 244.38 345.41 250.77 342.75 262.14 344.39 264.41 350.7 271.45 354.84 280.79 349.84 295.9 345.94 299.97 360.65 309.01 366.15 316.11 366.16 318.12 359.33 327.01 361.18 329.62 354.35 343.88 362.1 353.63 358.34 359.97 371.83 353.81 380.21 340.93 387.41 332.23 396.97 332.09 404.03 327.45 413.25 326.38 421.64 333.64 440.65 322.7 459.63 313.65 452.56 305.92 452.88 301.69 459.84 292.27 460.22 276.16 456.36 270.02 460.83 262.31 458.17 263.07 443.21 261.1 437.65 249.56 447.49 245.43 440.14 230.49 437.4 226.57 449.87 216.61 457.63 212.12 455.48 203.88 459.39 199.54 445.14 193.85 439.17 198.69 429.91 208.12 426.66 200.94 421.08 197.02 412.84 207.13 405.21 202.96 399.94 198.35 387.68 204.72 372.54 203.73 367.67 215.57 366.44 Z M 216.91 391.84 224.26 391.68 219.94 379.57 214.43 378.86 214.22 371.35 205.69 371.19 198.74 388.29 203.05 399.66 208.56 405.92 215.35 398.13 216.91 391.84 Z" fill-rule="evenodd"/>
<path stroke="#000000" fill="#FF99CC" id="38" d="M 177.37 536.59 182.73 544.19 188.99 522.29 182.49 504.94 182.18 491.87 169.12 498.17 161.21 487.76 180.96 481.08 183.16 490.83 193.6 493.73 183.55 476.18 177.28 472.37 181.35 462.4 185.45 462.33 189.69 448.12 193.42 442.21 199.54 445.14 203.88 459.39 212.12 455.48 216.61 457.63 226.57 449.87 230.49 437.4 245.43 440.14 249.56 447.49 261.1 437.65 263.07 443.21 262.31 458.17 270.02 460.83 276.16 456.36 292.27 460.22 301.69 459.84 305.92 452.88 313.65 452.56 321.6 458.3 327.46 469.78 327.32 474.75 336.09 487.69 346.38 499.5 342.9 507.63 333.42 515.86 324.21 519.45 330.23 525.93 336.56 521.94 345.44 522.34 341.95 533.66 337.3 541.17 331.93 536.3 328.17 544.19 329.28 553.33 319.82 549.14 322.85 538.64 320.46 529.16 313.02 523.66 302.27 527.84 299.33 538.25 303.29 544.52 311.04 549.84 314.56 557.31 302.85 571.04 294.09 576.41 281.86 566.89 272.18 568.41 270.81 561.99 276.4 554.1 282.71 550.29 286.96 542.16 264.34 548.97 257.06 556.68 251.98 567.33 254.02 574.65 247.89 578.09 235.55 578.53 232.51 576.08 212.35 584.77 210.46 596.37 201.98 594.06 195.99 588.1 198.22 583.91 194.61 566.68 174.06 557.09 171.67 543.93 177.37 536.59 Z M 235.03 494.94 247.84 489.55 255.64 489.13 258.27 484.59 249.19 467.5 234.93 471.77 227.01 467.36 217.9 478.95 217.23 485.35 226.87 487.11 235.03 494.94 Z M 216.58 595.13 216.63 595.09 214.96 587.58 224.9 587.56 228.25 597.07 220.56 599.52 216.58 595.13 Z M 237.41 579.42 239.59 586.43 230.24 588.75 231.99 580.89 237.41 579.42 Z M 281.46 572.37 281.32 580.54 270.73 581.13 267.77 576.34 281.46 572.37 Z M 170.57 558.69 176.68 561.13 184.09 569 183.54 578.91 171.62 587.68 161.39 591.21 154.94 587.26 152.28 580.65 161.49 572.89 170.59 562.38 170.57 558.69 Z M 341.8 548.8 347.73 548.56 347.14 559.93 338.01 554.66 341.8 548.8 Z M 137.91 537.56 143.21 544.37 134.62 546.92 132.46 541.02 137.91 537.56 Z M 155.68 517.71 159.42 523.62 153.36 528.22 149.36 522.91 155.68 517.71 Z M 160.25 481.12 155.8 492.5 148.37 489.95 160.25 481.12 Z" fill-rule="evenodd"/>
<path stroke="#000000" fill="#FF99CC" id="35" d="M 548.05 354.16 547.74 360.78 541.6 372.51 543.26 379.28 536.25 407.81 523.64 406.3 517.24 411.22 513.23 404.55 506.78 400.81 495.08 403.1 481.81 416.81 474.09 412.5 467.27 418.62 456.46 422.88 445.09 418.83 438.51 421.3 431.26 415.27 430.16 403.04 436.07 399.39 441.1 404.23 447.71 401.64 447.51 392.12 456.11 381.48 454.39 366.7 448.61 360.77 451.98 350.03 460.08 351.03 471.37 340.19 462.98 332.56 459.65 336.41 448.38 334.98 442.02 327.38 420.19 318.58 416.99 329.26 423.84 330.74 432.25 340.33 434.27 354.58 440.86 351.98 442.26 361.3 431.81 367.9 430.02 373.81 418.91 372.96 413.65 383.78 419.6 384.35 422.72 385.79 422.93 385.86 423.73 386.35 423.74 386.36 423.75 386.37 413.74 396.85 417.09 405.52 405.12 411.22 393.27 412.94 391.81 397.97 384.37 388.55 378.23 385.66 371.69 387.4 358.26 379.4 359.97 371.83 357.08 359.26 365.78 353.96 368.89 345.3 366.48 329 352.23 321.04 356.82 315.79 354.69 307.88 358.26 290.1 347.28 282.48 352.78 277.13 362.12 277.2 361.8 267.94 364.91 261.73 373.31 260.03 376.3 250.42 393.77 250.9 396.57 242.58 405.44 250.36 416.56 250.84 418.75 234.75 434.22 218.6 441.31 215.96 447.38 218.69 455.43 212.12 463.65 216.98 472.06 211.24 487.79 214.33 491.21 209.79 502.36 217.88 510.67 207.23 520.88 202.92 528.12 214.2 526.29 219.84 528.12 242.21 534.57 255.42 534.62 264.61 528.18 273.31 527.48 279.44 531.87 291.86 530.2 304.96 524.77 315.69 524.45 327.15 527.08 342.31 531.36 346.33 525.33 355.35 533.69 362.89 543.57 352.26 548.05 354.16 Z M 690.17 142.19 691.35 150.86 687.24 155.05 680.11 153.11 677.97 147.72 690.17 142.19 Z" fill-rule="evenodd"/>
<path stroke="#000000" fill="#FF99CC" id="36" d="M 393.76 511.39 393.84 516.93 377.28 512.14 373.2 501.65 367.27 503.42 359.34 507.93 346.1 510.2 346.38 499.5 336.09 487.69 327.32 474.75 322.54 460.02 333.64 440.65 326.38 421.64 327.45 413.25 332.09 404.03 332.23 396.97 340.93 387.41 353.81 380.21 371.69 387.4 378.23 385.66 384.37 388.55 391.81 397.97 393.27 412.94 405.12 411.22 411.81 417 427.81 413.21 438.51 421.3 445.09 418.83 456.46 422.88 467.27 418.62 474.09 412.5 485.97 420.2 485.19 428.61 496.12 432.33 499.96 438.73 509.06 444.34 504.57 452.07 484.42 468.16 471.64 471.63 466.84 479.52 463.4 490.71 450.05 488.15 450.17 482.39 440.37 481.83 437.89 474.13 442.75 471.07 435.08 475.91 438.8 481.87 423.36 493.24 428.15 499.83 421.63 506.31 420.06 513.38 424.85 517.93 416.46 525.36 408.51 508.25 393.76 511.39 Z M 374.55 513.13 377.94 519.02 376.25 524.95 366.69 520.43 374.55 513.13 Z M 358.54 509.73 362.86 514.05 359.31 519.76 364.66 528.74 369.97 525.45 378.34 527.62 377.55 537.46 366.46 542.49 358 540.75 349.66 525.31 354.38 512.47 358.54 509.73 Z M 431.07 512.77 444.87 507.25 448.09 497.13 455.96 519.9 447.98 527.35 446.19 537.44 438.39 541.08 438.38 523.05 430.43 526.48 425.06 518.99 431.07 512.77 Z" fill-rule="evenodd"/>
<path stroke="#000000" fill="#FF99CC" id="39" d="M 168.19 748.47 160.55 742.7 158.43 731.93 170.14 718.36 184.42 711.15 207.78 706.32 224.54 701.63 233.58 702.26 245.72 709.67 246.81 719.13 235.79 736.88 225.78 740.65 215.26 741.77 208.95 746.42 193.98 747.62 186.9 744.85 168.19 748.47 Z"/>
<path stroke="#000000" fill="#FF99CC" id="32" d="M 428.56 44.01 434.04 56.04 436.14 66.47 449.43 83.03 456.06 95.32 465.6 109.07 485.37 130.15 485.37 137.64 492.27 143.44 493.08 151.46 507.78 170.7 509.71 178.59 519.68 190.59 516.55 203.52 510.67 207.23 502.36 217.88 491.21 209.79 487.75 214.28 472.05 211.24 463.65 216.98 455.43 212.12 447.38 218.69 439.29 214.03 422.52 209.36 416.45 210.38 412.08 202.82 399.42 202.42 399.15 196.02 392.38 190.4 387.56 195.36 373.51 198.78 367.1 189.24 360.66 193.89 362.02 200.71 346.04 205.26 340.98 195.87 343.6 182.24 342.99 173.86 347.5 165.25 342.65 155.36 352.33 148.53 342.04 143.14 336.84 143.87 325.91 135.08 320.45 138.05 320.71 125.35 316.34 115.8 317.13 108.76 326.76 99.56 325.14 92.77 318.27 86.46 309.23 84.18 307.36 71.44 300.58 70.11 294.22 73.39 279.81 64.04 273.51 44.73 285.73 40.3 291.04 44.78 301.18 40.16 313.7 44.95 322.33 39.92 342.19 42.22 353.35 47.28 357.06 43.05 366.65 47.48 377.27 46.36 380.89 40.87 390.16 40.07 402.29 27.85 408.86 4.18 413.03 9.41 418.2 25.91 428.56 44.01 Z"/>
</g>
</svg>